<svg width="150" height="54" viewBox="0 0 150 54" fill="none" xmlns="http://www.w3.org/2000/svg">
  <path
    d="M20.2338 0.0317762C23.7977 -0.0459421 27.4024 -0.0329891 30.9108 0.68683C33.9418 1.26787 37.0394 2.53541 38.9676 5.05201C40.6441 7.1393 41.1511 9.9094 41.0475 12.5259C40.8976 15.1332 40.4294 17.7108 39.9354 20.2718C39.8632 20.7955 39.3858 21.4506 39.9095 21.8762C43.416 25.8824 45.3312 31.2727 44.9908 36.5982C44.8113 39.7236 43.8953 42.7842 42.4982 45.5784C41.3361 47.8026 39.8373 49.9029 37.8536 51.4702C35.7996 53.106 33.1794 54.0737 30.537 53.9035C24.9875 53.9016 19.4381 53.9054 13.8868 53.9017C11.0353 53.959 8.29847 52.623 6.26669 50.6782C3.73715 48.2985 2.0736 45.1324 1.01701 41.8553C-0.195029 38.0841 -0.350466 33.9632 0.69503 30.1347C1.54623 27.0611 3.08949 24.1818 5.18604 21.7799C5.56168 21.3951 5.17864 20.8418 5.12312 20.4032C4.5865 17.746 4.10908 15.0647 3.9703 12.3538C3.90554 9.83723 4.38295 7.18741 5.97617 5.16673C7.97094 2.4799 11.2684 1.17905 14.4678 0.622065C16.3645 0.233474 18.3001 0.0909901 20.2338 0.0317762ZM13.3317 9.56892C12.499 9.87609 12.2047 10.7939 12.2029 11.61C12.1881 13.1107 12.5323 14.5855 12.7099 16.0695C14.6621 15.3219 16.6384 14.5818 18.7238 14.3042C23.2777 13.5085 28.0759 14.1784 32.2672 16.1213C32.5244 14.3838 33.0129 12.6166 32.7298 10.855C32.5947 9.88905 31.6158 9.47455 30.809 9.18958C28.0371 8.31062 25.0949 8.32173 22.2174 8.25696C19.2364 8.38464 16.1018 8.30137 13.3317 9.56892ZM19.9044 22.4776C16.2035 23.1067 12.7432 25.1792 10.5764 28.2657C8.37064 31.3041 7.68598 35.3677 8.76108 38.9631C9.43094 41.2151 10.5245 43.4504 12.3361 44.9992C12.956 45.5784 13.8165 45.6783 14.627 45.6154C20.1191 45.608 25.6111 45.6154 31.1032 45.6117C32.2931 45.6247 33.1535 44.6365 33.8622 43.802C36.4158 40.449 37.5187 35.8562 36.1975 31.7889C35.2482 28.7117 33.0592 26.0878 30.3242 24.4242C27.2414 22.5405 23.4591 21.854 19.9044 22.4776Z"
    fill="white" />
  <path
    d="M47.0577 10.113C47.1077 8.92498 48.2068 7.86098 49.4114 7.9498C82.2937 7.95721 115.174 7.94795 148.055 7.95536C149.091 7.9276 150.033 8.89908 149.988 9.93162C149.996 23.8765 149.988 37.8214 149.994 51.7663C150.097 52.9265 149.024 54.0016 147.866 53.9054C113.566 53.9017 79.2664 53.9035 44.9667 53.9035C44.6799 53.8924 44.369 53.9035 44.1266 53.7259C43.936 53.3465 44.2173 52.9728 44.4467 52.6896C46.645 50.0546 48.2512 46.9533 49.3097 43.6965C50.5865 39.8254 51.062 35.6545 50.3866 31.6187C49.8093 27.5663 48.1439 23.7266 45.8308 20.3699C46.2546 16.954 46.6284 13.5307 47.0577 10.113ZM94.9525 13.8064C93.4148 14.3486 92.2453 15.6014 91.4682 16.9984C92.46 17.5499 93.45 18.1087 94.464 18.6194C94.8304 18.0532 95.2597 17.4777 95.9166 17.2279C96.8289 16.7523 98.1723 17.3648 98.226 18.4399C98.3259 19.1894 97.867 19.8315 97.3859 20.3496C95.3115 22.6793 93.2372 25.009 91.1721 27.3461C91.4959 28.0344 91.8512 28.7061 92.1528 29.4038C95.5373 29.4593 98.9236 29.4149 102.31 29.426C102.31 28.1547 102.33 26.8835 102.297 25.6122C100.517 25.6455 98.7145 25.4864 96.9751 25.973C98.1852 24.8036 99.4102 23.647 100.624 22.4813C101.871 21.2526 102.53 19.4521 102.319 17.709C102.204 16.2361 101.301 14.8575 100.013 14.1395C98.4832 13.2957 96.5828 13.1754 94.9525 13.8064ZM55.9916 13.6676C55.986 18.9266 55.9842 24.1837 55.9916 29.4408C57.6422 29.4408 59.2928 29.4389 60.9434 29.4426C60.9452 27.668 60.9545 25.8953 60.9378 24.1208C62.5532 24.0875 64.1668 24.13 65.7823 24.0967C65.7656 22.7847 65.7934 21.4728 65.7656 20.159C64.1594 20.1701 62.5514 20.1608 60.9452 20.1627C60.9489 19.317 60.9434 18.4714 60.9489 17.6239C62.5514 17.635 64.1539 17.6165 65.7582 17.6331C66.0025 16.9818 66.3078 16.3526 66.4965 15.6809C66.5705 15.0129 66.515 14.3375 66.5224 13.6676C63.0122 13.6714 59.5019 13.6714 55.9916 13.6676ZM68.0601 13.6788C68.0601 18.9303 68.0583 24.1837 68.0601 29.4371C69.6996 29.4463 71.3391 29.4389 72.9786 29.4389C72.9823 24.1837 72.986 18.9284 72.9768 13.6732C71.3373 13.6714 69.6978 13.6602 68.0601 13.6788ZM74.5237 13.6714C74.5182 14.987 74.5274 16.3027 74.5182 17.6183C75.497 17.6331 76.4778 17.6313 77.4585 17.6183C77.4807 21.5598 77.4567 25.5012 77.4715 29.4408C79.1184 29.4408 80.7671 29.4426 82.4158 29.4389C82.4251 25.4993 82.4029 21.5598 82.4269 17.6202C83.2152 17.6294 84.0035 17.635 84.7918 17.6146C84.999 16.9244 85.3617 16.2897 85.5394 15.5921C85.593 14.9574 85.5468 14.319 85.5634 13.6843C81.8829 13.651 78.2042 13.6788 74.5237 13.6714ZM110.202 14.4689C107.95 17.5332 105.702 20.6012 103.45 23.6656C103.868 24.4316 104.295 25.194 104.693 25.9712C106.553 26.0082 108.414 25.973 110.276 25.9916C110.261 27.1388 110.269 28.2879 110.269 29.4371C111.54 29.4445 112.809 29.4334 114.08 29.4426C114.105 28.2935 114.09 27.1425 114.088 25.9916C114.582 25.9897 115.078 25.986 115.576 25.9656C115.55 24.9053 115.565 23.8432 115.563 22.7829C115.072 22.7792 114.582 22.7792 114.093 22.7755C114.099 19.7408 114.079 16.7079 114.103 13.6732C113.015 13.6565 111.927 13.6325 110.84 13.6732C110.578 13.8934 110.407 14.1987 110.202 14.4689ZM125.496 13.6788C123.531 18.934 121.508 24.167 119.539 29.4204C120.983 29.4685 122.43 29.4149 123.875 29.4519C124.606 27.6921 125.224 25.8861 125.914 24.1097C127.209 20.6197 128.568 17.152 129.841 13.6547C128.392 13.6695 126.943 13.6306 125.496 13.6788ZM133.181 13.6584C133.171 14.9148 133.183 16.1713 133.173 17.4296C135.168 17.4629 137.165 17.4351 139.163 17.4425C137.513 21.4617 135.742 25.429 134.071 29.4389C135.399 29.4371 136.728 29.4426 138.057 29.4426C138.445 29.5351 138.491 29.0485 138.636 28.8116C140.557 24.4797 142.474 20.1423 144.435 15.829C144.104 15.1036 143.726 14.4004 143.39 13.6788C139.987 13.6306 136.584 13.6695 133.181 13.6584ZM69.0464 32.6272C68.5135 36.2356 67.8881 39.8291 67.3477 43.4375C67.022 45.0714 66.7741 46.7294 66.8685 48.4022C68.4968 48.4114 70.1234 48.404 71.7518 48.4059C71.8961 47.3511 71.9646 46.2908 72.0978 45.2361C72.8121 45.2361 73.5282 45.2342 74.2443 45.2453C74.3331 46.3001 74.4256 47.3548 74.557 48.4059C76.1984 48.4059 77.8397 48.404 79.481 48.4077C79.4773 47.6731 79.5217 46.9385 79.4533 46.2094C78.7113 41.6795 78.0136 37.1441 77.2624 32.618C74.5237 32.618 71.7851 32.5995 69.0464 32.6272ZM55.9879 32.6143C55.9897 37.8787 55.9823 43.1432 55.9934 48.4077C57.644 48.4003 59.2946 48.4133 60.9452 48.4003C60.9471 46.6369 60.9452 44.8715 60.9471 43.1081C62.5551 43.1062 64.1631 43.1099 65.7712 43.1044C65.7823 41.7795 65.7749 40.4527 65.7767 39.1278C64.1668 39.1222 62.5551 39.1278 60.9434 39.1259C60.9471 38.2914 60.9489 37.4587 60.9415 36.626C61.4781 36.5631 62.0203 36.5446 62.5606 36.5908C63.6339 36.676 64.7109 36.5631 65.786 36.5612C66.021 35.8932 66.3448 35.2548 66.5113 34.5646C66.5576 33.9151 66.5187 33.2638 66.528 32.6143C63.0159 32.6143 59.5019 32.6143 55.9879 32.6143ZM80.8115 34.5609C80.806 38.5042 80.8097 42.4456 80.8078 46.3889C80.7393 47.4362 81.6497 48.4558 82.7212 48.4003C85.6041 48.4133 88.489 48.4059 91.3738 48.4022C91.3738 47.0865 91.3793 45.769 91.3682 44.4533C89.5011 44.4607 87.6341 44.4441 85.767 44.4608C85.7429 41.8442 85.7688 39.2277 85.754 36.6112C87.3843 36.5168 89.0219 36.6686 90.6503 36.552C90.8316 35.8747 91.1665 35.2511 91.3534 34.5776C91.4071 33.9207 91.3701 33.2601 91.3553 32.6032C88.4797 32.6328 85.6041 32.5995 82.7285 32.6198C81.6849 32.5995 80.7763 33.5191 80.8115 34.5609ZM92.7857 36.5483C93.772 36.7093 94.7749 36.4983 95.7538 36.6612C95.7075 40.5748 95.7482 44.4885 95.7334 48.4022C97.3785 48.4077 99.0235 48.4096 100.67 48.4003C100.718 44.4737 100.674 40.5452 100.691 36.6186C101.468 36.4595 102.295 36.7093 103.046 36.5316C103.365 35.9006 103.59 35.2215 103.825 34.5572C103.89 33.9114 103.838 33.2601 103.851 32.6143C100.167 32.6106 96.4828 32.6235 92.7986 32.6069C92.7783 33.9207 92.8005 35.2345 92.7857 36.5483ZM106.257 32.7549C105.493 32.9954 105.006 33.7856 105.028 34.5702C105.021 38.5098 105.026 42.4512 105.026 46.3926C105.004 47.0477 105.287 47.7249 105.857 48.0802C106.331 48.4447 106.954 48.4059 107.521 48.4096C110.054 48.3911 112.589 48.4299 115.122 48.3911C116.134 48.3615 116.914 47.3881 116.865 46.4019C116.875 42.5807 116.862 38.7577 116.871 34.9366C116.877 34.4351 116.827 33.9133 116.553 33.484C116.196 32.8641 115.433 32.5976 114.75 32.6124C112.278 32.6124 109.808 32.618 107.336 32.6106C106.971 32.6124 106.597 32.6143 106.257 32.7549ZM118.703 48.4003C120.353 48.4077 122.006 48.4151 123.658 48.3966C123.664 46.7627 123.662 45.1288 123.658 43.4967C123.982 43.4948 124.31 43.4948 124.637 43.4985C125.046 45.138 125.501 46.7627 125.944 48.3948C127.554 48.417 129.165 48.4077 130.777 48.4003C130.716 47.5343 130.955 46.5999 130.52 45.8023C130.079 44.7457 129.687 43.6725 129.236 42.6214C129.924 42.2902 130.498 41.6462 130.507 40.8487C130.525 38.8095 130.507 36.7703 130.514 34.733C130.527 34.065 130.32 33.3137 129.709 32.9566C129.119 32.5421 128.373 32.6106 127.692 32.6124C124.698 32.6143 121.706 32.618 118.712 32.6087C118.692 37.8732 118.71 43.1377 118.703 48.4003ZM131.811 32.6143C131.859 33.4396 131.654 34.3167 132.009 35.0975C133.227 38.0638 134.426 41.0393 135.616 44.0166C135.769 45.4674 135.636 46.9422 135.682 48.404C137.313 48.4077 138.943 48.4096 140.575 48.4003C140.571 47.118 140.573 45.8356 140.569 44.5533C140.527 44.0925 140.758 43.6799 140.917 43.2654C142.033 40.5619 143.112 37.8436 144.215 35.1346C144.607 34.3518 144.389 33.4525 144.441 32.6124C142.796 32.6198 141.152 32.605 139.507 32.6198C139.115 34.6664 138.701 36.7074 138.303 38.754C138.219 38.7577 138.057 38.767 137.973 38.7725C137.544 36.7296 137.135 34.6812 136.78 32.6254C135.124 32.5995 133.468 32.6217 131.811 32.6143Z"
    fill="white" />
  <path
    d="M107.856 22.8162C108.672 21.4228 109.671 20.1441 110.602 18.8285C110.592 20.1571 110.579 21.4857 110.568 22.8143C109.663 22.8106 108.759 22.8143 107.856 22.8162Z"
    fill="white" />
  <path
    d="M21.5495 29.6702C23.8903 29.2094 26.4716 30.4973 27.3839 32.7271C28.0778 34.4203 27.717 36.5113 26.4161 37.8177C24.8765 39.4923 22.2249 39.9605 20.1894 38.9594C18.4444 38.1767 17.1824 36.3207 17.2972 34.3833C17.3046 32.0425 19.2901 30.031 21.5495 29.6702Z"
    fill="white" />
  <path
    d="M72.8935 36.6112C73.0933 36.626 73.2932 36.6445 73.4949 36.6648C73.5467 38.2118 73.741 39.7495 73.8853 41.2909C73.4042 41.2891 72.9249 41.2909 72.4457 41.2928C72.5567 39.7273 72.8065 38.1766 72.8935 36.6112Z"
    fill="white" />
  <path
    d="M109.98 36.613C110.62 36.5575 111.264 36.5557 111.906 36.6112C111.897 39.2277 111.923 41.8461 111.893 44.4626C111.259 44.4496 110.626 44.4496 109.993 44.4644C109.961 41.8461 109.989 39.2296 109.98 36.613Z"
    fill="white" />
  <path
    d="M123.669 36.5871C124.299 36.5594 124.93 36.5612 125.561 36.5649C125.594 37.5438 125.557 38.5245 125.59 39.5053C124.948 39.5626 124.304 39.5219 123.662 39.5182C123.662 38.5412 123.655 37.5642 123.669 36.5871Z"
    fill="white" />
</svg>
