<svg width="50" height="50" viewBox="0 0 50 50" fill="none" xmlns="http://www.w3.org/2000/svg">
  <path
    d="M5.04193 9.63545C5.11308 4.51267 9.67852 -0.0361678 14.8155 0.00889371C21.5534 -0.00296457 28.296 -0.00296457 35.0363 0.00889371C38.7218 0.0160087 42.2414 2.33312 43.8209 5.64158C44.6083 7.21399 44.8763 8.9951 44.8431 10.7406C44.8146 20.3885 44.8763 30.0364 44.8146 39.6796C44.779 41.4821 43.1995 42.7793 41.5204 43.0568C41.4919 44.3209 41.6034 45.5945 41.4326 46.8467C41.1101 48.6089 39.2578 49.6904 37.5479 49.5172C35.8071 49.4081 33.6749 49.9536 32.3421 48.4974C30.8076 47.0626 31.4669 44.8 31.3223 42.9548C27.0628 42.962 22.7985 42.9667 18.539 42.9548C18.3944 44.8024 19.0584 47.0744 17.5121 48.5045C16.1674 49.9607 14.0258 49.4034 12.2731 49.5125C10.7078 49.6524 9.00734 48.7725 8.53301 47.212C8.15354 45.8744 8.45712 44.4656 8.31007 43.0995C6.66651 42.6987 5.05379 41.4915 5.04667 39.6488C5.00635 29.6451 5.00873 19.6415 5.04193 9.63545ZM18.5343 3.61855C18.5343 4.59805 18.5295 5.5728 18.5201 6.54992C22.7985 6.56178 27.0722 6.58313 31.346 6.53806C31.327 5.56568 31.3246 4.59093 31.3199 3.61855C27.0604 3.6233 22.7962 3.6233 18.5343 3.61855ZM8.69191 10.162C8.69191 16.6081 8.68717 23.0495 8.69191 29.4933C19.5162 29.4862 30.3428 29.4862 41.1646 29.4933C41.1765 23.0519 41.1599 16.6129 41.1765 10.1691C30.3451 10.1738 19.5162 10.1857 8.69191 10.162ZM10.6343 33.3449C8.44763 34.1062 7.99701 37.3886 9.93229 38.6859C11.6375 40.1089 14.5618 38.961 14.8392 36.7553C15.3729 34.4667 12.764 32.3891 10.6343 33.3449ZM37 33.3093C35.6339 33.805 34.7019 35.33 35.0173 36.7719C35.2592 38.2756 36.7628 39.4709 38.2902 39.2859C40.3274 39.2598 41.8192 36.8217 40.9061 34.9932C40.3251 33.5014 38.4799 32.7567 37 33.3093Z"
    fill="currentColor" />
  <path
    d="M0.113636 14.4166C0.514446 12.8134 2.41414 13.1264 3.67349 13.1004C3.66875 16.5108 3.66163 19.9212 3.67349 23.3364C2.39754 23.3151 0.417208 23.5688 0.0946625 21.8873C-0.0168054 19.4066 -0.0523802 16.895 0.113636 14.4166Z"
    fill="currentColor" />
  <path
    d="M46.1831 13.1004C47.3855 13.1644 49.1311 12.7755 49.6766 14.2103C50.0133 16.0389 49.7382 17.9291 49.8331 19.779C49.7833 20.8676 50.0892 22.2574 49.0481 22.9973C48.1777 23.474 47.1341 23.2582 46.1831 23.3365C46.1973 19.926 46.1926 16.5108 46.1831 13.1004Z"
    fill="currentColor" />
</svg>
