<svg width="63" height="54" viewBox="0 0 63 54" fill="none" xmlns="http://www.w3.org/2000/svg">
  <path
    d="M62.5024 19.4808C62.4421 11.4811 57.0119 3.90632 49.4815 1.2406C45.5589 -0.315273 41.2877 0.0494268 37.1685 0.0126945C31.3738 0.0205657 25.5844 -0.000424178 19.7898 0.0231895C14.5248 0.0310607 9.30433 2.24025 5.64924 6.03942C2.07544 9.66805 0.0224004 14.7214 0.0119124 19.814C-0.00906375 31.8859 0.00404632 41.4179 0.00404632 53.4897H5.68595C5.68333 43.2781 5.67546 30.044 5.68857 19.8324C5.69644 16.2169 7.1569 12.6381 9.67928 10.0511C12.2856 7.32243 16.0141 5.71408 19.7871 5.70883C27.3202 5.68784 34.8506 5.70096 42.381 5.70096C45.614 5.65635 48.8522 6.72684 51.385 8.74187C54.7517 11.3551 56.8126 15.5426 56.8231 19.8088C56.8414 30.0283 56.8336 43.2676 56.8257 53.4871L62.5155 53.5894C62.5129 41.3654 62.5469 31.7074 62.5024 19.4808Z"
    fill="currentColor" />
  <path
    d="M45.9658 12.0715C44.6312 11.4706 43.1497 11.3525 41.705 11.384C34.4079 11.3972 27.1109 11.3735 19.8138 11.3945C16.4996 11.3762 13.3217 13.5145 12.0553 16.5738C11.4443 17.9224 11.3368 19.4205 11.3683 20.8846C11.3919 28.294 11.3395 35.7035 11.3919 43.1103C11.4994 47.1666 14.8923 50.6771 18.8804 51.1625C18.9328 51.1625 18.9879 51.1625 19.0429 51.1625V53.4898H22.8999V51.1625C27.6956 51.1625 33.6109 51.1652 39.6231 51.1652V53.4898H43.4801V51.1652C43.5273 51.1652 43.5719 51.1652 43.6191 51.1652C47.6229 50.6929 51.0315 47.1613 51.1312 43.0867C51.181 35.3335 51.1521 27.5777 51.1443 19.8246C51.1548 16.5082 49.0178 13.3361 45.9658 12.0715ZM21.0619 46.3952C19.0639 47.08 16.7041 45.818 16.1509 43.7872C15.5321 41.8955 16.6307 39.6863 18.4923 39.012C20.4693 38.1881 22.9445 39.3531 23.5869 41.3917C24.3368 43.3884 23.1044 45.8075 21.0619 46.3952ZM19.8007 34.1187C18.3324 34.1266 17.0214 32.7937 17.0581 31.3244C17.045 27.9556 17.045 24.5893 17.0581 21.2204C17.0581 19.1398 18.8148 17.2455 20.8915 17.0985C27.6012 17.0329 34.3136 17.088 41.0233 17.0697C43.3149 16.9227 45.4702 18.9089 45.4624 21.2152C45.4807 24.5788 45.4807 27.9477 45.4624 31.3113C45.5043 32.9197 43.9731 34.2788 42.3841 34.1292C34.8589 34.124 27.3285 34.1502 19.8007 34.1187ZM43.4015 46.4975C41.3563 46.9698 39.1407 45.4874 38.792 43.4173C38.4091 41.662 39.4265 39.7545 41.081 39.0723C43.1235 38.1173 45.7691 39.3583 46.3643 41.5255C47.0775 43.6403 45.5935 46.1171 43.4015 46.4975Z"
    fill="currentColor" />
</svg>
