<svg width="39" height="64" viewBox="0 0 39 64" fill="none" xmlns="http://www.w3.org/2000/svg">
  <path
    d="M38.9977 22.5936C39.0186 20.9053 38.7103 19.1772 37.8822 17.6949C36.2912 14.4556 32.8375 12.244 29.2558 12.2097C26.7818 12.1859 24.3078 12.2097 21.8338 12.1991C22.9702 9.35079 24.0805 6.49454 25.2404 3.65943C26.0007 3.86024 26.8184 4.34113 27.5995 3.98178C28.425 3.6198 28.6915 2.4308 28.1037 1.74117C27.5812 1.12553 26.7191 1.07533 26.0059 0.824321C21.3583 -0.367324 16.3659 -0.282773 11.7889 1.18102C11.1984 1.33427 10.6681 1.80195 10.5897 2.44136C10.4461 3.26574 11.1357 4.10861 11.9665 4.11389C12.5883 4.08483 13.1735 3.8391 13.7665 3.66207C14.9134 6.50247 16.0315 9.35343 17.1653 12.1991C14.8742 12.2018 12.5831 12.1965 10.2919 12.1991C9.24955 12.1938 8.20195 12.2995 7.20138 12.5928C3.14945 13.758 0.0432266 17.7187 0.011877 22.0071C-0.0116352 31.6512 0.00926454 41.2927 0.00142715 50.9368C-0.0116352 52.0254 0.0615138 53.1299 0.36456 54.1815C1.2946 57.5767 4.09255 60.3564 7.46785 61.2336C7.84143 61.3366 8.22285 61.4027 8.60427 61.4529V64H12.0449V61.5559C15.5587 61.5559 22.9519 61.5586 26.9647 61.5586V64H30.4053V61.445C31.4712 61.3049 32.5109 61.0196 33.4593 60.4806C36.7797 58.8635 39.0421 55.2357 38.9977 51.4996C39.0029 41.8634 38.9977 32.2298 38.9977 22.5936ZM16.7081 3.10721C18.5656 2.93282 20.4283 2.93282 22.2857 3.10721C21.374 5.39802 20.4831 7.6994 19.5505 9.97964C19.527 9.99021 19.4773 10.0034 19.4538 10.014C18.5264 7.71525 17.6199 5.40859 16.7081 3.10721ZM14.4928 16.0198C17.6042 15.9696 20.7157 16.0198 23.8271 15.996C24.475 15.9854 25.2065 16.033 25.6846 16.5429C26.4343 17.2405 26.3716 18.588 25.567 19.2169C25.0863 19.6449 24.4123 19.6555 23.8114 19.6555C20.7366 19.637 17.6643 19.6713 14.5894 19.6396C13.7038 19.6502 12.873 18.9394 12.7921 18.0358C12.6458 17.0212 13.487 16.0383 14.4928 16.0198ZM12.7529 53.6134C11.8228 54.3136 10.608 54.1577 9.52125 54.1471C8.21763 54.1524 6.99238 53.1616 6.71285 51.8748C6.57439 51.1878 6.577 50.4744 6.6815 49.7875C6.89049 48.4848 8.06349 47.4332 9.3645 47.3645C10.4905 47.354 11.7523 47.1716 12.7294 47.8771C13.6594 48.4928 14.1009 49.6421 14.0277 50.7387C14.1035 51.8325 13.6803 52.9925 12.7529 53.6134ZM31.1655 53.5738C30.2564 54.303 29.0364 54.1603 27.9522 54.1524C26.8941 54.1683 25.8622 53.5579 25.3528 52.6226C24.893 51.8167 24.94 50.847 25.0079 49.9566C25.149 48.5588 26.4004 47.4015 27.7876 47.3592C28.8718 47.3566 30.0735 47.1822 31.0244 47.8375C31.9284 48.4082 32.4169 49.4942 32.3829 50.5563C32.4717 51.6819 32.1217 52.9079 31.1655 53.5738ZM33.6134 38.9068C24.2033 38.9068 14.7932 38.9068 5.38572 38.9068C5.3831 34.0318 5.3831 29.1569 5.38572 24.2794C14.7958 24.2767 24.2059 24.2794 33.6134 24.2794C33.6134 29.1543 33.6134 34.0318 33.6134 38.9068Z"
    fill="currentColor" />
</svg>
