<svg width="96" height="75" viewBox="0 0 96 75" fill="none" xmlns="http://www.w3.org/2000/svg">
<path d="M68.6142 17.9137L67.618 19.4064H68.5986L68.6142 17.9137Z" fill="black"/>
<path d="M55.5236 24.5004H55.3347L55.1763 26.2346H55.6827L55.5236 24.5004Z" fill="black"/>
<path d="M73.888 24.5004H73.1989V25.5928H73.888V24.5004Z" fill="black"/>
<path d="M69.0746 24.5004H68.3855V27.4105H69.0746V24.5004Z" fill="black"/>
<path d="M45.3674 30.3931C45.2885 30.4943 44.9119 30.8959 45.4867 30.8959C45.921 30.8959 71.7031 30.8959 79.9634 30.8959C80.7271 30.8959 81.341 30.8959 81.7698 30.8959C82.1613 30.8959 82.4819 30.5603 82.4819 30.1489V14.6556C82.4819 14.2423 82.1613 13.9073 81.7698 13.9073H79.9634H63.8572H47.0352C46.645 13.9073 46.2864 14.241 46.2411 14.6478L45.8048 18.5222C46.8842 20.1134 47.5193 22.0383 47.5193 24.11C47.5187 26.0995 46.7742 28.5825 45.3674 30.3931ZM61.8371 23.7587L61.568 24.5004H59.8635V27.4105H61.8371V28.8679H58.8232C58.4113 28.8679 58.1267 28.5675 58.1267 28.1425V23.7587C58.1267 23.335 58.4113 23.034 58.8232 23.034H61.8371V23.7587ZM66.2266 23.7587L65.9489 24.5004H65.1168V28.8679H63.3788V24.5004H62.3404V23.034H66.2266V23.7587ZM76.5587 16.017H80.1448L80.522 16.809L78.3794 21.8567H76.8719L78.6771 17.4181H76.5581V16.017H76.5587ZM76.0802 23.034H77.8177L78.2377 25.3009H78.3651L78.7927 23.034H80.5202V23.7587L79.1655 27.2767V28.8685H77.4361V27.2767L76.0796 23.7587V23.034H76.0802ZM73.8637 16.017H75.3905L73.292 21.8567H71.7534L73.8637 16.017ZM71.4607 23.034H74.9356C75.3395 23.034 75.6248 23.335 75.6248 23.7587V26.0511C75.6248 26.3254 75.4284 26.6349 75.1649 26.7086L75.7124 28.1425V28.8679H74.0159L73.548 27.0514H73.1988V28.8679H71.4607V23.034ZM70.812 23.7587V28.1425C70.812 28.5675 70.5261 28.8679 70.1141 28.8679H67.3458C66.9332 28.8679 66.6486 28.5675 66.6486 28.1425V23.7587C66.6486 23.335 66.9332 23.034 67.3458 23.034H70.1141C70.5261 23.034 70.812 23.335 70.812 23.7587ZM68.6855 16.017H69.8382V19.39H70.3565V20.5861H69.8382V21.8567H68.496V20.5861H66.5411L66.0943 19.7197L68.6855 16.017ZM62.9307 17.8647L61.8793 17.2627C62.3348 16.3467 63.0867 15.9334 63.8485 15.9334C65.0739 15.9334 65.7096 16.8174 65.7096 17.7335C65.7096 18.2767 65.5201 18.8709 65.0186 19.3658L63.7938 20.5861L64.4469 20.4458H65.7022V21.8483H62.1223L61.7693 21.0811L64.0312 18.4086C64.7763 17.5265 63.5422 16.6849 62.9307 17.8647ZM55.9045 16.0228H59.7914V16.7469L59.5136 17.4887H58.6803V21.8567H56.9435V17.4887H55.9045V16.0228ZM53.6345 16.0228H55.3633V21.8574H53.6345V16.0228ZM53.2095 28.1425L53.9869 23.034H56.8739L57.6507 28.1425V28.8679H55.9151L55.8107 27.692H55.0488L54.9382 28.8679H53.2095V28.1425ZM49.3816 16.0228H53.0939V16.7469L52.8224 17.4887H51.1185V18.4315H52.8224V19.8888H51.1185V21.8567H49.3816V16.0228ZM49.3816 23.034H53.0939V23.7587L52.8224 24.5004H51.1185V25.4426H52.8224V26.9006H51.1185V28.8679H49.3816V23.034Z" fill="black"/>
<path d="M34.5388 30.8953H40.646C43.6672 30.8953 45.5215 26.9379 45.5215 24.1003C45.5215 22.1278 44.8013 20.3205 43.6101 18.9284C43.6871 18.6451 43.753 18.3539 43.8027 18.0574L43.8462 17.7956C44.1439 16.0138 44.4527 14.1738 43.305 12.7387C42.3287 11.5151 40.5664 10.9706 37.5937 10.9706C34.6215 10.9706 32.8586 11.5151 31.8823 12.738C30.734 14.1738 31.0416 16.0144 31.3399 17.7937L31.3827 18.0574C31.4324 18.3539 31.4989 18.6451 31.5766 18.9284C30.3866 20.3205 29.6646 22.1278 29.6646 24.1003C29.6633 26.9385 31.517 30.8953 34.5388 30.8953ZM34.1063 14.7021C34.2343 14.5427 34.8613 14.025 37.5924 14.025C40.3235 14.025 40.9499 14.5427 41.0772 14.7021C41.3246 15.0128 41.1965 15.9557 41.0362 16.937C39.9935 16.431 38.8253 16.1463 37.5912 16.1463C36.3583 16.1463 35.1901 16.431 34.1467 16.937C33.9877 15.9557 33.8596 15.0128 34.1063 14.7021ZM37.5918 19.2007C40.3608 19.2007 42.614 21.3991 42.614 24.1003C42.614 25.8703 41.4395 27.8409 40.646 27.8409H34.5388C33.7447 27.8409 32.5709 25.8703 32.5709 24.1003C32.5709 21.3991 34.8241 19.2007 37.5918 19.2007Z" fill="black"/>
<path d="M37.5918 25.5653C38.6078 25.5653 39.4324 24.7472 39.4324 23.7385C39.4324 22.7304 38.6078 21.9136 37.5918 21.9136C36.577 21.9136 35.7531 22.7304 35.7531 23.7385C35.7531 24.7472 36.577 25.5653 37.5918 25.5653Z" fill="black"/>
<path d="M90.7143 0H21.4316C18.9547 0 16.9395 2.11744 16.9395 4.72001V30.5812C14.3283 31.5423 11.9347 33.1126 9.92133 35.2293L0 45.652L3.95399 49.8073L13.8753 39.3846C16.3466 36.7872 19.632 35.3573 23.1261 35.3567C26.6203 35.3567 29.9057 36.7866 32.377 39.3839C34.8483 41.9806 36.2092 45.4326 36.2092 49.1047C36.2092 52.7761 34.8483 56.2281 32.377 58.8248L22.4575 69.2501C21.3657 70.398 21.3663 72.2575 22.4581 73.4047C23.0044 73.9786 23.7196 74.2653 24.4354 74.2653C25.1513 74.2653 25.8672 73.9786 26.4134 73.4047L36.3322 62.9794C38.7563 60.433 40.4322 57.3094 41.2432 53.9037H90.715C93.1919 53.9037 95.2071 51.7869 95.2071 49.1837V4.71936C95.2065 2.11679 93.1912 0 90.7143 0ZM89.6138 48.0267H41.7726C41.7061 46.7274 41.5197 45.4516 41.2183 44.2123H89.6132V48.0267H89.6138ZM89.6138 38.336H38.7433C38.0492 37.2299 37.2451 36.1872 36.3322 35.2287C32.8045 31.5214 28.1148 29.4803 23.1268 29.4803C22.9279 29.4803 22.7303 29.4895 22.5327 29.4953V5.87635H89.6138V38.336Z" fill="black"/>
<path d="M25.2302 62.0581C25.946 62.0581 26.6612 61.7715 27.2075 61.1975L30.4158 57.8265C32.4975 55.6386 33.6439 52.7298 33.6439 49.6363C33.6439 46.5421 32.4968 43.6339 30.4145 41.4467C28.3328 39.2581 25.5651 38.0541 22.6203 38.0541C19.676 38.0541 16.9077 39.2587 14.8248 41.4467L11.6171 44.817C10.5253 45.9649 10.5253 47.8251 11.6171 48.9722L23.2528 61.1975C23.7991 61.7715 24.5143 62.0581 25.2302 62.0581ZM18.7794 45.6012C19.8059 44.5239 21.1699 43.9297 22.6209 43.9297C24.0719 43.9297 25.4352 44.5232 26.4605 45.6012C27.4865 46.6785 28.0513 48.1123 28.0519 49.6363C28.0519 51.1608 27.4871 52.5933 26.4618 53.6713L25.2308 54.9648L17.5496 46.8946L18.7794 45.6012Z" fill="black"/>
</svg>
