<svg width="90" height="108" viewBox="0 0 90 108" fill="none" xmlns="http://www.w3.org/2000/svg">
<path d="M87.8242 0.988365C86.7964 -0.220856 85.0154 -0.340341 83.864 0.7396C82.7119 1.82085 82.5994 3.66406 83.6284 4.87393C84.1299 5.49813 84.8141 6.72433 83.8006 7.94465L71.5608 21.6581C71.5453 21.6764 71.5279 21.6953 71.5123 21.7142C70.9419 22.3867 70.1577 22.7863 69.302 22.8386C68.79 22.8764 68.2897 22.7628 67.8287 22.5467L74.9394 14.1311C75.9634 12.918 75.859 11.0611 74.7039 9.98309C73.5499 8.90641 71.7826 9.01741 70.7567 10.2292L57.3462 26.1006C56.3209 27.3137 56.4253 29.1707 57.5805 30.2486C58.113 30.7455 58.7761 30.9897 59.436 30.9897C60.2078 30.9897 60.9752 30.6561 61.5282 30.0025L63.2228 27.9967C65.1355 35.886 69.5605 58.1704 63.6926 75.9137C60.1108 74.1064 55.9518 72.4049 51.6175 70.939L53.7501 66.6617H56.9386C58.4834 66.6617 59.7349 65.3461 59.7349 63.7235C59.7349 62.101 58.4834 60.7854 56.9386 60.7854H46.9122C45.368 60.7854 44.1159 62.101 44.1159 63.7235C44.1159 65.3461 45.368 66.6617 46.9122 66.6617H47.4367L46.1498 69.2434C41.5526 67.9428 36.9592 66.9608 32.8281 66.4436L29.073 43.1642C28.8151 41.5639 27.3647 40.4859 25.8491 40.7581C24.3267 41.0291 23.3014 42.5459 23.5593 44.1455L27.0907 66.0349C27.0304 66.0343 26.9677 66.0316 26.908 66.0316C23.9004 66.0316 21.5751 66.4182 19.7998 67.2134C9.96855 71.6129 5.29871 84.531 7.10575 93.8359C7.66439 96.7133 8.78043 99.1768 10.3482 101.181H2.79631C1.25213 101.181 0 102.496 0 104.119C0 105.741 1.25213 107.057 2.79631 107.057H23.4996H63.6037H80.2698C81.8133 107.057 83.0661 105.741 83.0661 104.119C83.0661 102.496 81.8133 101.181 80.2698 101.181H72.5544C73.6549 99.5856 74.5616 97.7489 75.1625 95.7797C77.0664 89.5338 75.301 83.6254 70.4367 79.9749C69.8867 79.5622 69.2921 79.1503 68.6632 78.7402C75.0351 60.6143 71.4315 38.7204 69.1715 28.7214C69.3231 28.7201 69.4748 28.7143 69.6276 28.7058C71.9591 28.5628 74.1011 27.4789 75.6621 25.6533L87.9081 11.9327C87.9236 11.9144 87.941 11.8955 87.9565 11.8772C91.5613 7.62602 89.4454 2.89556 87.8242 0.988365ZM69.8364 93.9867C68.5184 98.3117 65.2125 101.181 63.6044 101.181H23.5002C15.847 101.181 13.3403 96.5481 12.5859 92.6613C11.248 85.7716 14.7813 75.8464 21.9921 72.6197C22.7166 72.2958 24.1577 71.9086 26.9086 71.9086C31.4703 71.9086 37.4333 72.9363 43.4933 74.5719L42.5953 76.3727C41.8981 76.2232 41.1767 76.1435 40.4372 76.1435C34.5158 76.1435 29.6987 81.2057 29.6987 87.4274C29.6987 93.6491 34.5158 98.7106 40.4372 98.7106C46.3592 98.7106 51.1763 93.6491 51.1763 87.4274C51.1763 84.091 49.7831 81.0966 47.584 79.0295L48.9883 76.2134C54.366 77.9756 59.5087 80.1251 63.4739 82.3672C63.6522 82.5102 63.843 82.6388 64.0567 82.7361C64.0965 82.7538 64.1369 82.7596 64.1767 82.776C65.2908 83.4328 66.3068 84.0955 67.188 84.7569C70.8617 87.5156 70.6567 91.2986 69.8364 93.9867ZM45.583 87.4274C45.583 90.4087 43.2745 92.8343 40.4372 92.8343C37.5999 92.8343 35.2914 90.4087 35.2914 87.4274C35.2914 84.691 37.2382 82.4273 39.753 82.0734L37.8304 85.9283C37.1139 87.3654 37.6415 89.1413 39.0098 89.8942C39.4237 90.122 39.8674 90.2304 40.3048 90.2304C41.3115 90.2304 42.2846 89.6572 42.7842 88.6549L44.8106 84.5911C45.2972 85.4177 45.583 86.3866 45.583 87.4274Z" fill="black"/>
<path d="M20.1142 49.6692C21.6583 49.6692 22.9105 48.3536 22.9105 46.731C22.9105 45.1085 21.6583 43.7929 20.1142 43.7929C18.547 43.7929 17.2445 43.3992 16.4485 42.6849C15.9122 42.2037 15.6164 41.5801 15.6164 40.9298C15.6164 39.5358 16.9823 38.0361 19.9806 38.0361C23.8121 38.0361 26.3648 39.2525 29.0686 40.54C31.8835 41.8811 34.7948 43.2679 38.9222 43.2679C40.4663 43.2679 41.7185 41.9523 41.7185 40.3298C41.7185 38.7073 40.4663 37.3917 38.9222 37.3917C36.0028 37.3917 33.8596 36.3711 31.3771 35.1887C28.3975 33.7686 25.0201 32.1598 19.9799 32.1598C13.4428 32.1598 10.0232 36.5716 10.0232 40.9298C10.0238 45.2724 13.49 49.6692 20.1142 49.6692Z" fill="black"/>
</svg>
