<svg width="103" height="54" viewBox="0 0 103 54" fill="none" xmlns="http://www.w3.org/2000/svg">
<path d="M95.9671 16.2056V15.507C95.9671 11.6489 91.1894 10.2616 87.2465 9.77245V8.5197C87.2465 4.19025 83.9128 0.668381 79.8138 0.668381H76.0027C71.9051 0.668381 68.5714 4.19025 68.5714 8.5197V17.2561H34.4299V8.51904C34.4299 4.18959 31.0956 0.667725 26.9973 0.667725H23.1862C19.0879 0.667725 15.7542 4.18959 15.7542 8.51904V9.77179C11.8113 10.2609 7.03355 11.6489 7.03355 15.5063V16.2049C0.977798 16.8405 0 18.6638 0 20.604V33.268C0 35.2088 0.977798 37.0308 7.03355 37.667V38.3656C7.03355 42.223 11.8119 43.611 15.7542 44.1001V45.3536C15.7542 49.6824 19.0879 53.2042 23.1862 53.2042H26.9973C31.0956 53.2042 34.4299 49.6824 34.4299 45.3536V35.7879H68.5714V45.3536C68.5714 49.6824 71.9051 53.2042 76.0027 53.2042H79.8138C83.9128 53.2042 87.2465 49.6824 87.2465 45.3536V44.1001C91.19 43.611 95.9671 42.2237 95.9671 38.3656V37.6664C102.023 37.0308 103 35.2088 103 33.268V20.6046C103 18.6644 102.023 16.8411 95.9671 16.2056ZM5.59452 31.4814V22.3925C5.97619 22.3157 6.4598 22.2369 7.03355 22.1646V31.7086C6.45918 31.637 5.97619 31.5583 5.59452 31.4814ZM12.6281 37.3394V16.5345C13.2341 16.2666 14.3046 15.9567 15.7542 15.7328V38.1404C14.3046 37.9165 13.2341 37.6073 12.6281 37.3394ZM28.8354 45.3555C28.8354 46.4264 28.0111 47.297 26.9973 47.297H23.1862C22.1729 47.297 21.3487 46.4264 21.3487 45.3555V8.51904C21.3487 7.44817 22.1729 6.5769 23.1862 6.5769H26.9973C28.0111 6.5769 28.8354 7.44817 28.8354 8.51904V45.3555ZM34.4299 29.8801V23.1646H68.5714V29.8807H34.4299V29.8801ZM81.6513 45.3555C81.6513 46.4264 80.8271 47.297 79.8132 47.297H76.0021C74.9895 47.297 74.1652 46.4264 74.1652 45.3555V8.51904C74.1652 7.44817 74.9895 6.5769 76.0021 6.5769H79.8132C80.8271 6.5769 81.6513 7.44817 81.6513 8.51904V45.3555ZM90.3726 37.3394C89.7665 37.6073 88.6961 37.9172 87.2465 38.1411V15.7328C88.6961 15.9567 89.7671 16.2666 90.3726 16.5345V37.3394ZM97.4055 31.4814C97.0244 31.5583 96.5408 31.637 95.9671 31.7093V22.1646C96.5415 22.2362 97.0244 22.315 97.4055 22.3925V31.4814Z" fill="black"/>
</svg>
