<svg width="83" height="85" viewBox="0 0 83 85" fill="none" xmlns="http://www.w3.org/2000/svg">
<path d="M32.679 23.6564V17.1121C32.679 14.9065 31.0285 13.1129 28.9997 13.1129H27.7655V4.56672C27.7655 2.54656 26.3444 0.963867 24.5299 0.963867H9.96172C8.14722 0.963867 6.72607 2.54656 6.72607 4.56672V13.1129H5.49196C3.46308 13.1129 1.81263 14.9065 1.81263 17.1121V23.6564C1.81263 25.7529 3.30462 27.4747 5.19431 27.6399C0.00310768 41.9318 0 42.3732 0 43.0065V51.8067C0 52.1743 0.0515764 52.5294 0.140437 52.8683C0.0515764 53.2072 0 53.5617 0 53.9293V60.5774C0 60.945 0.0515764 61.3002 0.140437 61.6391C0.0515764 61.9779 0 62.3325 0 62.7001V69.3488C0 69.7164 0.0515764 70.071 0.140437 70.4099C0.0515764 70.7487 0 71.1033 0 71.4702V80.777C0 82.9826 1.70762 84.7769 3.8061 84.7769H30.6855C32.784 84.7769 34.4916 82.9826 34.4916 80.777V71.4702C34.4916 71.1026 34.44 70.7487 34.3512 70.4099C34.44 70.071 34.4916 69.7164 34.4916 69.3488V62.7001C34.4916 62.3325 34.44 61.9773 34.3512 61.6384C34.44 61.2996 34.4916 60.945 34.4916 60.5774V53.9287C34.4916 53.5611 34.44 53.2059 34.3512 52.867C34.44 52.5281 34.4916 52.1736 34.4916 51.806V43.0058C34.4916 42.3973 34.4885 41.9364 29.3178 27.6386C31.1976 27.4623 32.679 25.7451 32.679 23.6564ZM12.3187 6.84021H22.1723V12.5788H12.3187V6.84021ZM7.40526 21.7798V18.9892H27.0864V21.7798H7.40526ZM28.899 78.9005H5.59263V73.348H12.8686C14.4128 73.348 15.665 72.0324 15.665 70.4099C15.665 68.7873 14.4128 67.4717 12.8686 67.4717H5.59263V64.5766H12.8686C14.4128 64.5766 15.665 63.261 15.665 61.6384C15.665 60.0159 14.4128 58.7003 12.8686 58.7003H5.59263V55.8052H12.8686C14.4128 55.8052 15.665 54.4895 15.665 52.867C15.665 51.2445 14.4128 49.9288 12.8686 49.9288H5.59263V43.3917C6.09783 41.747 8.68784 34.4962 11.1759 27.6562H23.3399C25.8181 34.4976 28.3981 41.7477 28.899 43.3898V49.9295H26.3369C24.7927 49.9295 23.5406 51.2451 23.5406 52.8677C23.5406 54.4902 24.7927 55.8058 26.3369 55.8058H28.899V58.7009H26.3369C24.7927 58.7009 23.5406 60.0166 23.5406 61.6391C23.5406 63.2616 24.7927 64.5773 26.3369 64.5773H28.899V67.4723H26.3369C24.7927 67.4723 23.5406 68.788 23.5406 70.4105C23.5406 72.033 24.7927 73.3487 26.3369 73.3487H28.899V78.9005Z" fill="black"/>
<path d="M77.2404 45.4549C77.7064 44.7961 77.9867 43.9747 77.9867 43.0821V37.0895C77.9867 34.9336 76.3698 33.1798 74.3819 33.1798H52.8584C50.8705 33.1798 49.2536 34.9342 49.2536 37.0895V43.0821C49.2536 43.9747 49.5339 44.7961 49.9999 45.4549C44.4912 54.2962 44.4862 55.2488 44.4862 56.0898V79.966C44.4862 82.6182 46.5399 84.7755 49.0641 84.7755H78.1756C80.7003 84.7755 82.7522 82.6176 82.7522 79.966V56.0898C82.7535 55.2488 82.7485 54.2968 77.2404 45.4549ZM72.3947 39.0562V40.3868H54.8475V39.0562H72.3947ZM77.1608 78.8998H50.0801V56.5723C50.7232 55.1724 53.3822 50.726 55.7348 46.9925H71.5092C73.8599 50.726 76.5195 55.1717 77.1615 56.5723V78.8998H77.1608Z" fill="black"/>
<path d="M54.2995 60.6226C52.7559 60.6226 51.5032 61.9382 51.5032 63.5607C51.5032 65.1832 52.7559 66.4988 54.2995 66.4988H72.9416C74.4864 66.4988 75.7379 65.1832 75.7379 63.5607C75.7379 61.9382 74.4864 60.6226 72.9416 60.6226H54.2995Z" fill="black"/>
<path d="M72.9416 70.0898H54.2995C52.7559 70.0898 51.5032 71.4055 51.5032 73.028C51.5032 74.6505 52.7559 75.9662 54.2995 75.9662H72.9416C74.4864 75.9662 75.7379 74.6505 75.7379 73.028C75.7379 71.4055 74.487 70.0898 72.9416 70.0898Z" fill="black"/>
</svg>
