<svg width="66" height="99" viewBox="0 0 66 99" fill="none" xmlns="http://www.w3.org/2000/svg">
<path d="M60.1574 52.0846H59.0837C58.8724 48.9505 57.6215 46.0319 55.4857 43.7891C53.1381 41.3231 50.0161 39.965 46.696 39.965C44.0612 39.965 41.6228 40.8399 39.6132 42.3181C37.5427 40.7948 35.0882 39.965 32.5075 39.965C29.8727 39.965 27.4318 40.8373 25.4185 42.3135C23.3492 40.7929 20.8966 39.965 18.3183 39.965C11.7688 39.965 6.39797 45.3216 5.9344 52.0852H4.85875C2.17926 52.0852 0 54.3757 0 57.1904V93.2515C0 96.0669 2.17926 98.3567 4.85875 98.3567H60.1568C62.8369 98.3567 65.0156 96.0662 65.0156 93.2515V57.1904C65.0168 54.375 62.8376 52.0846 60.1574 52.0846ZM46.6978 45.8406C48.5235 45.8406 50.2405 46.5882 51.5317 47.945C52.6099 49.0772 53.2773 50.5221 53.4699 52.0846H44.9038C44.7752 50.1917 44.2632 48.3792 43.4069 46.7443C44.3844 46.1743 45.5023 45.8406 46.6978 45.8406ZM32.5087 45.8406C34.335 45.8406 36.052 46.5882 37.3439 47.945C38.4214 49.0772 39.0881 50.5221 39.2808 52.0846H25.7373C26.1791 48.5673 29.0438 45.8406 32.5087 45.8406ZM18.3202 45.8406C19.4947 45.8406 20.6225 46.1534 21.6224 46.7351C20.7779 48.3426 20.2466 50.1558 20.1136 52.0839H11.5482C11.99 48.5673 14.8553 45.8406 18.3202 45.8406ZM59.4242 92.4804H5.59387V57.9609H59.4242V92.4804Z" fill="black"/>
<path d="M29.5844 31.5852C28.8723 33.0249 29.4061 34.799 30.7763 35.5472C31.1883 35.7725 31.6295 35.8789 32.0632 35.8789C33.073 35.8789 34.0486 35.3017 34.547 34.2949C39.2168 24.8542 33.9237 16.1363 33.6963 15.77C32.8555 14.4164 31.1367 14.0384 29.8442 14.9127C28.551 15.7882 28.1782 17.604 29.004 18.9674C29.1581 19.2213 32.7238 25.2394 29.5844 31.5852Z" fill="black"/>
<path d="M52.0798 31.5852C51.3677 33.0249 51.9014 34.799 53.2716 35.5472C53.6836 35.7725 54.1242 35.8789 54.5586 35.8789C55.5683 35.8789 56.544 35.3017 57.0423 34.2949C61.7122 24.8542 56.419 16.1363 56.1916 15.77C55.3509 14.4164 53.6321 14.0384 52.3395 14.9127C51.0464 15.7882 50.6736 17.604 51.4994 18.9674C51.6535 19.2213 55.2191 25.2394 52.0798 31.5852Z" fill="black"/>
<path d="M7.08907 31.5852C6.37694 33.0249 6.91073 34.799 8.28092 35.5472C8.69291 35.7725 9.13411 35.8789 9.56785 35.8789C10.5776 35.8789 11.5532 35.3017 12.0516 34.2949C16.7208 24.8542 11.4283 16.1363 11.2009 15.77C10.3601 14.4164 8.64071 14.0384 7.34881 14.9127C6.05567 15.7882 5.68283 17.604 6.50868 18.9674C6.66216 19.2213 10.2284 25.2394 7.08907 31.5852Z" fill="black"/>
<path d="M44.3812 21.4811C44.9013 21.4811 45.4283 21.3289 45.8981 21.0103C47.1906 20.1341 47.5634 18.319 46.7382 16.9556C46.5841 16.7023 43.0185 10.6849 46.1578 4.33785C46.8699 2.89815 46.3361 1.12415 44.9659 0.375895C43.5945 -0.372358 41.9062 0.189158 41.1953 1.62821C36.5254 11.0702 41.8179 19.7874 42.046 20.1537C42.5804 21.0149 43.4709 21.4811 44.3812 21.4811Z" fill="black"/>
<path d="M22.9323 21.4812C23.4524 21.4812 23.9794 21.3291 24.4498 21.0104C25.7429 20.1342 26.1151 18.3191 25.2893 16.9557C25.1358 16.7024 21.5702 10.685 24.7089 4.33783C25.421 2.89811 24.8872 1.1241 23.5171 0.375838C22.1462 -0.371768 20.4585 0.188446 19.7464 1.62881C15.0772 11.0702 20.3696 19.7875 20.5977 20.1538C21.1321 21.015 22.0226 21.4812 22.9323 21.4812Z" fill="black"/>
<path d="M12.1683 87.2744H52.8497C54.3939 87.2744 55.646 85.9588 55.646 84.3362C55.646 82.7137 54.3939 81.3981 52.8497 81.3981H12.1683C10.6241 81.3981 9.37195 82.7137 9.37195 84.3362C9.37195 85.9588 10.6235 87.2744 12.1683 87.2744Z" fill="black"/>
</svg>
