<svg width="82" height="101" viewBox="0 0 82 101" fill="none" xmlns="http://www.w3.org/2000/svg">
<path d="M66.4603 70.3423H4.87118C2.18485 70.3423 0 72.6393 0 75.4613V95.7595C0 98.5827 2.18548 100.878 4.87118 100.878H66.4603C69.146 100.878 71.3315 98.5827 71.3315 95.7595V75.4613C71.3315 72.6393 69.146 70.3423 66.4603 70.3423ZM65.7389 95.0021H5.59263V76.2187H65.7389V95.0021Z" fill="black"/>
<path d="M12.2243 88.5493H59.1073C60.6509 88.5493 61.9036 87.233 61.9036 85.6112C61.9036 83.988 60.6509 82.673 59.1073 82.673H12.2243C10.6801 82.673 9.42798 83.988 9.42798 85.6112C9.42798 87.233 10.6801 88.5493 12.2243 88.5493Z" fill="black"/>
<path d="M76.2313 24.5853C65.4151 1.77269 49.9043 0 45.4072 0C44.5186 0 43.978 0.0652922 43.8785 0.0790036C43.1124 0.179554 42.4195 0.609833 41.9653 1.26602L34.4195 12.1705C33.7559 13.1297 33.7149 14.4127 34.3015 15.4247C34.8881 16.4368 36.0066 16.9754 37.1214 16.7991C37.127 16.7978 37.7012 16.7071 38.6668 16.7071C42.7712 16.7071 53.0722 18.2996 60.0642 33.0472C68.7471 51.3585 59.0091 61.6486 58.6021 62.0652C57.78 62.8866 57.5115 64.1487 57.9229 65.2593C58.3349 66.37 59.3447 67.1091 60.4793 67.1306L73.3088 67.3689C73.325 67.3702 73.3424 67.3702 73.3579 67.3702C74.1129 67.3702 74.8362 67.049 75.3632 66.4809C75.9237 65.8763 88.9253 51.3592 76.2313 24.5853ZM72.0598 61.4704L65.9346 61.3568C68.9944 55.5901 71.9734 44.9866 65.069 30.4264C58.1777 15.8896 48.2532 12.0119 42.0802 11.0913L45.6875 5.87829C49.7011 5.95991 62.0664 7.88931 71.2246 27.2055C80.4923 46.7528 74.3223 58.2417 72.0598 61.4704Z" fill="black"/>
<path d="M26.0226 29.6761C26.2537 29.8048 29.7734 31.7178 34.4699 31.7178C37.2731 31.7178 40.4963 31.0368 43.6878 28.8868C44.9878 28.0105 45.3668 26.1934 44.5329 24.8275C43.699 23.4616 41.9696 23.0627 40.6697 23.9402C34.9378 27.799 28.9127 24.6316 28.63 24.4782C27.2673 23.7273 25.5826 24.2738 24.8612 25.705C24.1379 27.1382 24.658 28.9174 26.0226 29.6761Z" fill="black"/>
<path d="M44.2639 62.4682C44.2247 64.0901 45.4439 65.4377 46.9875 65.4795C47.0117 65.4795 47.0359 65.4795 47.0602 65.4795C48.5714 65.4795 49.8155 64.2141 49.854 62.6171C49.8565 62.5446 50.1019 55.2782 56.2091 51.8719C57.5731 51.1106 58.0913 49.3314 57.3674 47.8982C56.6434 46.4663 54.9514 45.9192 53.5861 46.6818C44.6274 51.6793 44.2744 62.0294 44.2639 62.4682Z" fill="black"/>
<path d="M46.637 35.61L28.9463 46.4754C27.6127 47.2942 27.1641 49.0936 27.9433 50.4935C28.4634 51.4285 29.3993 51.9495 30.3606 51.9495C30.8397 51.9495 31.3256 51.8209 31.7693 51.548L49.4594 40.6826C50.7929 39.8638 51.2422 38.0644 50.463 36.6645C49.6825 35.2633 47.9705 34.7912 46.637 35.61Z" fill="black"/>
</svg>
